<svg id="Capa_1" data-name="Capa 1" xmlns="http://www.w3.org/2000/svg" viewBox="0 0 180.8 166.14"><defs><style>.cls-1{fill:#8c76ff;}.cls-2{fill:#fff;}</style></defs><title>email</title><path class="cls-1" d="M54.33,28.39h67.44A23.52,23.52,0,0,1,145.29,51.9v67.44a23.51,23.51,0,0,1-23.51,23.51H54.33a23.51,23.51,0,0,1-23.51-23.51V51.9A23.51,23.51,0,0,1,54.33,28.39Z"/><path class="cls-2" d="M128.13,115.9H51.25a2.55,2.55,0,0,1-2.55-2.54V61.47a2.55,2.55,0,0,1,2.55-2.55h76.88a2.55,2.55,0,0,1,2.55,2.55v51.89A2.55,2.55,0,0,1,128.13,115.9Zm-74.34-5.09h71.79V64H53.79Z"/><path class="cls-2" d="M89.69,95.4a11.25,11.25,0,0,1-7.51-2.87L49.55,63.37a2.55,2.55,0,0,1,1.7-4.45h76.88a2.55,2.55,0,0,1,1.7,4.45L97.2,92.53A11.27,11.27,0,0,1,89.69,95.4ZM57.92,64,85.57,88.73a6.16,6.16,0,0,0,8.23,0h0L121.45,64Z"/><path class="cls-2" d="M128.13,115.55H51.25a2.55,2.55,0,0,1-1.7-4.45L78.18,85.51a2.55,2.55,0,1,1,3.4,3.8L57.92,110.45h63.53L97.8,89.31a2.55,2.55,0,1,1,3.4-3.8l28.63,25.59a2.55,2.55,0,0,1-1.7,4.45Z"/></svg>