<svg id="Capa_1" data-name="Capa 1" xmlns="http://www.w3.org/2000/svg" viewBox="0 0 180.8 166.14"><defs><style>.cls-1{fill:#1976d2;}.cls-2{fill:#fafafa;}</style></defs><title>facebook</title><path class="cls-1" d="M134.25,28H48.75A14.26,14.26,0,0,0,34.5,42.25v85.5A14.26,14.26,0,0,0,48.75,142h85.5a14.26,14.26,0,0,0,14.25-14.25V42.25A14.26,14.26,0,0,0,134.25,28Z"/><path class="cls-2" d="M130.69,85H112.88V70.75c0-3.93,3.19-3.56,7.12-3.56h7.12V49.38H112.88A21.37,21.37,0,0,0,91.5,70.75V85H77.25v17.81H91.5V142h21.38V102.81h10.68Z"/></svg>