<svg id="Capa_1" data-name="Capa 1" xmlns="http://www.w3.org/2000/svg" xmlns:xlink="http://www.w3.org/1999/xlink" viewBox="0 0 180.8 166.14"><defs><style>.cls-1{fill:url(#radial-gradient);}.cls-2{fill:#fff;}</style><radialGradient id="radial-gradient" cx="65.54" cy="150" r="151.69" gradientUnits="userSpaceOnUse"><stop offset="0.1" stop-color="#ffd77a"/><stop offset="0.16" stop-color="#fcca76"/><stop offset="0.26" stop-color="#f4a96d"/><stop offset="0.4" stop-color="#e8745d"/><stop offset="0.45" stop-color="#e46158"/><stop offset="0.68" stop-color="#c13c8d"/><stop offset="1" stop-color="#5d63a9"/></radialGradient></defs><title>insta</title><path class="cls-1" d="M146.48,117.62A23.52,23.52,0,0,1,123,141.13H55.52A23.51,23.51,0,0,1,32,117.62V50.18A23.51,23.51,0,0,1,55.52,26.66H123a23.52,23.52,0,0,1,23.52,23.52Z"/><path class="cls-2" d="M105.81,40.73H72.67a26.6,26.6,0,0,0-26.6,26.6v33.14a26.6,26.6,0,0,0,26.6,26.59h33.14a26.6,26.6,0,0,0,26.6-26.59V67.33A26.6,26.6,0,0,0,105.81,40.73Zm18.31,56.56a21.49,21.49,0,0,1-21.49,21.49H75.85A21.49,21.49,0,0,1,54.36,97.29V70.51A21.49,21.49,0,0,1,75.85,49h26.78a21.49,21.49,0,0,1,21.49,21.49Z"/><path class="cls-2" d="M90.4,61.31a22.74,22.74,0,1,0,22.74,22.74A22.74,22.74,0,0,0,90.4,61.31Zm0,36.42a13.68,13.68,0,1,1,13.68-13.68A13.69,13.69,0,0,1,90.4,97.73Z"/><path class="cls-2" d="M117.35,61a5.79,5.79,0,1,1-5.79-5.78A5.79,5.79,0,0,1,117.35,61Z"/></svg>