<svg id="Capa_1" data-name="Capa 1" xmlns="http://www.w3.org/2000/svg" viewBox="0 0 180.8 166.14"><defs><style>.cls-1{fill:#007bb5;}.cls-2{fill:#fff;}</style></defs><title>link</title><path class="cls-1" d="M57.21,27.22h67.44a23.52,23.52,0,0,1,23.52,23.52v67.44a23.52,23.52,0,0,1-23.52,23.52H57.21A23.51,23.51,0,0,1,33.7,118.18V50.73A23.51,23.51,0,0,1,57.21,27.22Z"/><path class="cls-2" d="M50.85,70.56H68v55.27H50.85Zm8.59-27.48a10,10,0,1,1-9.95,10,10,10,0,0,1,9.95-10"/><path class="cls-2" d="M78.81,70.56H95.29v7.56h.23c2.29-4.35,7.9-8.93,16.25-8.93,17.4,0,20.61,11.44,20.61,26.32v30.32H115.21V99c0-6.41-.11-14.66-8.93-14.66S96,91.28,96,98.49v27.34H78.81Z"/></svg>